<svg id="Camada_1" data-name="Camada 1" xmlns="http://www.w3.org/2000/svg" viewBox="0 0 595.28 595.28"><defs><style>.cls-1{fill:#181819;}.cls-2{fill:#d8d9dc;}.cls-3{fill:#009986;}</style></defs><rect class="cls-1" x="-8.5" y="-8.5" width="612.28" height="612.28"/><path class="cls-2" d="M137.36,397.84v14.28h-2.71V387.6a13,13,0,0,1,1-5.2,13.27,13.27,0,0,1,7.14-7.11,13.09,13.09,0,0,1,5.22-1.05,12.94,12.94,0,0,1,5.19,1.05,13.54,13.54,0,0,1,4.25,2.86,13.68,13.68,0,0,1,2.87,4.25,13,13,0,0,1,1,5.2v24.52h-2.66V397.84Zm21.4-10.24a10.21,10.21,0,0,0-.85-4.15,10.92,10.92,0,0,0-2.3-3.4,11,11,0,0,0-3.41-2.31,10.32,10.32,0,0,0-4.14-.84,10.5,10.5,0,0,0-4.2.84,10.8,10.8,0,0,0-3.38,2.31,11.4,11.4,0,0,0-2.28,3.4,10.37,10.37,0,0,0-.84,4.15v7.58h21.4Z"/><path class="cls-2" d="M177.7,377.51v34.61H175V377.51h-11v-2.66h24.83v2.66Z"/><path class="cls-2" d="M191.37,384.27a9.73,9.73,0,0,1,.79-3.89,10.09,10.09,0,0,1,5.32-5.35,9.67,9.67,0,0,1,3.92-.79,9.87,9.87,0,0,1,5.07,1.35,10.11,10.11,0,0,1,3.63,3.66,9.63,9.63,0,0,1,3.59-3.66,9.91,9.91,0,0,1,5.11-1.35,9.75,9.75,0,0,1,3.9.79,10.41,10.41,0,0,1,3.2,2.15,10.29,10.29,0,0,1,2.15,3.2,9.91,9.91,0,0,1,.79,3.89v27.85h-2.71V384.27a7.24,7.24,0,0,0-.57-2.87,7.08,7.08,0,0,0-1.56-2.32,7.42,7.42,0,0,0-2.33-1.59,7.05,7.05,0,0,0-2.87-.59,7.25,7.25,0,0,0-2.89.59,7.39,7.39,0,0,0-2.35,1.59A7.08,7.08,0,0,0,212,381.4a7.24,7.24,0,0,0-.57,2.87v27.85h-2.71V384.27a7.21,7.21,0,0,0-2.12-5.19,7.65,7.65,0,0,0-2.33-1.59,7.09,7.09,0,0,0-2.87-.59,7.22,7.22,0,0,0-2.89.59,7.26,7.26,0,0,0-4.48,6.78v27.85h-2.66Z"/><path class="cls-2" d="M260.78,399.32a13,13,0,0,1-1,5.2,13.35,13.35,0,0,1-7.11,7.11,13,13,0,0,1-5.2,1.05,13.16,13.16,0,0,1-5.22-1.05,13.27,13.27,0,0,1-7.14-7.11,13,13,0,0,1-1.05-5.2V387.55a13,13,0,0,1,1.05-5.2,13.27,13.27,0,0,1,7.14-7.11,13.16,13.16,0,0,1,5.22-1.05,13,13,0,0,1,5.2,1.05,13.35,13.35,0,0,1,7.11,7.11,13,13,0,0,1,1,5.2Zm-2.66-11.77a10.37,10.37,0,0,0-.84-4.15,11,11,0,0,0-5.71-5.71,10.37,10.37,0,0,0-4.15-.84,10.44,10.44,0,0,0-7.57,3.15,10.92,10.92,0,0,0-2.28,3.4,10.21,10.21,0,0,0-.85,4.15v11.77a10.21,10.21,0,0,0,.85,4.15,10.92,10.92,0,0,0,2.28,3.4,10.44,10.44,0,0,0,7.57,3.15,10.37,10.37,0,0,0,4.15-.84,11,11,0,0,0,5.71-5.71,10.37,10.37,0,0,0,.84-4.15Z"/><path class="cls-2" d="M286.89,374.65v2.71H275.27a7.09,7.09,0,0,0-2.87.59,7.53,7.53,0,0,0-2.33,1.59,7.48,7.48,0,0,0-1.56,8.06,7.22,7.22,0,0,0,3.89,3.89,7.24,7.24,0,0,0,2.87.56h3.38a9.74,9.74,0,0,1,3.89.8,10,10,0,0,1,5.35,5.35,10,10,0,0,1,0,7.8,10.44,10.44,0,0,1-2.15,3.18,10.29,10.29,0,0,1-3.2,2.15,9.73,9.73,0,0,1-3.89.79H267v-2.66h11.62a7.24,7.24,0,0,0,2.87-.57,7.08,7.08,0,0,0,2.32-1.56,7.39,7.39,0,0,0,1.59-2.35,7.25,7.25,0,0,0,.59-2.89,7.05,7.05,0,0,0-.59-2.87,7.53,7.53,0,0,0-1.59-2.33,7.4,7.4,0,0,0-2.32-1.56,7.24,7.24,0,0,0-2.87-.56h-3.38a9.71,9.71,0,0,1-3.92-.8,10.17,10.17,0,0,1-5.32-5.32,9.67,9.67,0,0,1-.79-3.92,9.83,9.83,0,0,1,.79-3.94,10.12,10.12,0,0,1,2.15-3.2,10.27,10.27,0,0,1,3.17-2.15,9.7,9.7,0,0,1,3.92-.79Z"/><path class="cls-2" d="M293.44,384.78a10.17,10.17,0,0,1,.82-4,11,11,0,0,1,2.23-3.33,10.41,10.41,0,0,1,3.33-2.25,10.49,10.49,0,0,1,8.7.26,10.85,10.85,0,0,1,3.61,2.91,10.42,10.42,0,0,1,8.24-4,10,10,0,0,1,4,.82,10.87,10.87,0,0,1,3.33,2.25,10.53,10.53,0,0,1,2.25,3.33,10,10,0,0,1,.82,4v27.34h-4.5V384.78a6.13,6.13,0,0,0-.46-2.33,5.8,5.8,0,0,0-1.28-1.89,6.55,6.55,0,0,0-1.9-1.28,5.55,5.55,0,0,0-2.3-.49,5.76,5.76,0,0,0-2.33.49,6.39,6.39,0,0,0-1.92,1.28,5.64,5.64,0,0,0-1.28,1.89,5.94,5.94,0,0,0-.46,2.33v27.34h-4.51V384.78a5.94,5.94,0,0,0-.46-2.33,5.5,5.5,0,0,0-1.28-1.89,6.27,6.27,0,0,0-1.92-1.28,5.76,5.76,0,0,0-4.65,0,6.27,6.27,0,0,0-1.92,1.28,5.5,5.5,0,0,0-1.28,1.89,5.94,5.94,0,0,0-.46,2.33v27.34h-4.46Z"/><path class="cls-2" d="M341.1,398.61v13.51h-4.5V388a13.11,13.11,0,0,1,1.07-5.3,13.64,13.64,0,0,1,7.24-7.24,13.29,13.29,0,0,1,5.35-1.08,13.12,13.12,0,0,1,5.3,1.08,13.64,13.64,0,0,1,4.33,2.91,13.83,13.83,0,0,1,2.92,4.33,13.28,13.28,0,0,1,1.07,5.3v24.16h-4.45V398.61ZM359.43,388a8.88,8.88,0,0,0-.72-3.56,9.24,9.24,0,0,0-4.89-4.89,9.14,9.14,0,0,0-7.11,0,9.34,9.34,0,0,0-2.92,2,9.12,9.12,0,0,0-2,2.92,8.88,8.88,0,0,0-.72,3.56v6.19h18.33Z"/><path class="cls-2" d="M382.82,374.29a12.73,12.73,0,0,1,7,2.1,16.29,16.29,0,0,1,5.3,5.63l-3.94,2.15a11.37,11.37,0,0,0-3.59-3.94,8.43,8.43,0,0,0-4.81-1.49,8.88,8.88,0,0,0-3.56.72,9.13,9.13,0,0,0-2.91,2,9.31,9.31,0,0,0-2,2.92,9,9,0,0,0-.71,3.56v11.16a8.94,8.94,0,0,0,2.69,6.45,9.56,9.56,0,0,0,2.91,1.94,8.88,8.88,0,0,0,3.56.72,8.56,8.56,0,0,0,4.81-1.46,11.13,11.13,0,0,0,3.59-3.92l3.94,2.2a16.26,16.26,0,0,1-5.27,5.56,12.84,12.84,0,0,1-7.07,2.07,13.32,13.32,0,0,1-5.3-1.07,13.79,13.79,0,0,1-7.24-7.22,13,13,0,0,1-1.08-5.27V387.91a13.12,13.12,0,0,1,1.08-5.3,13.71,13.71,0,0,1,7.24-7.25A13.32,13.32,0,0,1,382.82,374.29Z"/><path class="cls-2" d="M399.71,374.75h4.46v37.37h-4.46Z"/><path class="cls-2" d="M408.26,374.75h23.19v4.5H412.72v11.93H429.1v4.51H412.72v12h18.73v4.45H408.26Z"/><path class="cls-2" d="M436.16,374.8h4.45v32.87h20v4.45H436.16Z"/><path class="cls-3" d="M413.37,347.78H386c-10.25,0-20.51.11-30.75-.11-2,0-4.91-.76-5.73-2.16-3.27-5.55-5.89-11.49-9.3-18.41h40.62c-23.11-47.27-45.58-93.25-68.55-140.25l-20.31,41.42c-12.5,25.55-25.13,51-37.38,76.71-2.22,4.65-4.92,6.35-9.88,6s-9.77-.09-15.58-.09c1-2.66,1.6-4.56,2.47-6.32q33.57-68.68,67.12-137.36c1.57-3.24,3.56-4,7-4.55,13.17-2.14,19.91,3,25.74,15.37,25.83,55,53,109.39,79.69,164C411.77,343.42,412.25,345,413.37,347.78Z"/><path class="cls-3" d="M283.39,162.78c-27,55.17-53.28,109.06-80.16,164.07h40.63c-3.53,7.13-6.36,13.12-9.49,18.95a4.62,4.62,0,0,1-3.48,1.85c-19.47.05-38.94,0-58.41-.15-.32,0-.64-.4-1.64-1.08,2.82-5.89,5.65-11.91,8.56-17.89q39-80,78-160c2-4.23,4.47-6.28,9.37-5.83S276.85,162.78,283.39,162.78Z"/><path class="cls-3" d="M322.11,290.46c-6.71-13.81-12.6-26.35-18.92-38.66-2-4-1.94-7.09.19-10.85,3-5.31,5.49-10.91,8.9-17.8,14.44,29.55,28.28,57.86,42.55,87.08H269.55c3.21-6.47,5.95-12.55,9.29-18.28.68-1.17,3.62-1.41,5.53-1.43C296.42,290.4,308.47,290.46,322.11,290.46Z"/><path class="cls-2" d="M211.82,438.45l.62-.66a5.45,5.45,0,0,0,4.06,1.87c2.12,0,3.45-1.13,3.45-2.78s-1.13-2.28-2.49-2.89l-2.1-.94c-1.21-.53-2.81-1.39-2.81-3.44s1.72-3.41,4-3.41a5.28,5.28,0,0,1,3.86,1.65l-.56.65a4.41,4.41,0,0,0-3.3-1.43c-1.82,0-3,1-3,2.48s1.38,2.22,2.4,2.67l2.09.93c1.55.69,2.91,1.55,2.91,3.66s-1.74,3.73-4.42,3.73A6.08,6.08,0,0,1,211.82,438.45Z"/><path class="cls-2" d="M223.93,435.26c0-3.37,2.1-5.31,4.52-5.31s4.53,1.94,4.53,5.31-2.1,5.28-4.53,5.28S223.93,438.6,223.93,435.26Zm8.07,0c0-2.65-1.51-4.49-3.55-4.49s-3.55,1.84-3.55,4.49,1.52,4.46,3.55,4.46S232,437.92,232,435.26Z"/><path class="cls-2" d="M242,437.5V431h-6.24v-.72l1.41-.09h4.86l.11-2.92H243v2.92h2.93V431H243v6.56c0,1.29.33,2.16,1.72,2.16a3.66,3.66,0,0,0,1.26-.32l.24.75a5.93,5.93,0,0,1-1.64.38C242.6,440.54,242,439.31,242,437.5ZM237.18,428c0-2,.9-3,2.49-3a3.67,3.67,0,0,1,1.47.34l-.25.75a2.75,2.75,0,0,0-1.2-.28c-1.09,0-1.59.82-1.59,2.28v12.26h-.92Z"/><path class="cls-2" d="M248,430.2h1l1.82,6.53c.25.93.48,1.8.69,2.7h.08c.24-.9.49-1.77.74-2.7l1.83-6.53h1.1l1.84,6.53.75,2.7h.08c.25-.9.48-1.77.72-2.7l1.78-6.53h.94l-2.88,10.08h-1.22L255.47,434c-.29-1-.49-1.89-.77-2.88h-.09c-.24,1-.48,2-.8,2.92l-1.73,6.22H251Z"/><path class="cls-2" d="M263.91,437.78c0-2.24,2-3.31,6.5-3.81,0-1.55-.39-3.21-2.37-3.21a5.52,5.52,0,0,0-3.21,1.19l-.43-.69a6.78,6.78,0,0,1,3.75-1.31c2.39,0,3.19,1.73,3.19,3.89v6.44h-.78l-.1-1.31h0a5.89,5.89,0,0,1-3.58,1.57A2.64,2.64,0,0,1,263.91,437.78Zm6.5.33v-3.43c-4.14.48-5.55,1.44-5.55,3.05a1.9,1.9,0,0,0,2.14,2A5.29,5.29,0,0,0,270.41,438.11Z"/><path class="cls-2" d="M276,430.2h.79l.1,1.88h0a3.53,3.53,0,0,1,2.87-2.13,2.14,2.14,0,0,1,1,.21l-.21.84a2.27,2.27,0,0,0-.91-.17c-.91,0-2,.69-2.75,2.6v6.85H276Z"/><path class="cls-2" d="M282.64,435.26c0-3.29,2.14-5.31,4.4-5.31s3.86,1.7,3.86,4.67a3.8,3.8,0,0,1-.06.75h-7.25c0,2.55,1.53,4.36,3.8,4.36a4.58,4.58,0,0,0,2.71-.89l.38.71a5.55,5.55,0,0,1-3.18,1C284.73,440.54,282.64,438.56,282.64,435.26Zm7.38-.65c0-2.58-1.16-3.86-3-3.86s-3.25,1.45-3.46,3.86Z"/><path class="cls-2" d="M300,426.45h7.57v.83H301v5.24h5.55v.83H301v6.1h6.82v.83H300Z"/><path class="cls-2" d="M311.8,430.2h.78l.1,1.56h.05A5,5,0,0,1,316.2,430c2.08,0,3.05,1.26,3.05,3.87v6.46h-.93v-6.34c0-2.14-.68-3.15-2.3-3.15-1.2,0-2.07.63-3.29,1.89v7.6h-.93Z"/><path class="cls-2" d="M323.17,442.35a3.16,3.16,0,0,1,1.5-2.43v-.09a1.83,1.83,0,0,1-.89-1.62,2.39,2.39,0,0,1,1.1-1.86v-.08a3.71,3.71,0,0,1-1.27-2.76,3.48,3.48,0,0,1,3.55-3.56,3.63,3.63,0,0,1,1.34.25h3.41V431h-2.34a3.34,3.34,0,0,1,1.11,2.53,3.47,3.47,0,0,1-3.52,3.56,3.38,3.38,0,0,1-1.67-.43,1.85,1.85,0,0,0-.82,1.46c0,.73.42,1.31,1.92,1.31h2.16c2.27,0,3.33.72,3.33,2.31s-1.86,3.41-4.77,3.41C324.77,445.14,323.17,444.05,323.17,442.35Zm8-.52c0-1.11-.81-1.53-2.33-1.53h-2.17a6,6,0,0,1-1.24-.17,2.62,2.62,0,0,0-1.32,2.12c0,1.28,1.21,2.14,3.34,2.14S331.13,443.1,331.13,441.83Zm-1.37-8.32a2.61,2.61,0,1,0-5.21,0,2.61,2.61,0,1,0,5.21,0Z"/><path class="cls-2" d="M334.93,426.94a.8.8,0,0,1,.85-.82.79.79,0,0,1,.84.82.82.82,0,0,1-.84.83A.83.83,0,0,1,334.93,426.94Zm.36,3.26h.93v10.08h-.93Z"/><path class="cls-2" d="M341.15,430.2h.79l.1,1.56h0a4.92,4.92,0,0,1,3.46-1.81c2.09,0,3.05,1.26,3.05,3.87v6.46h-.93v-6.34c0-2.14-.67-3.15-2.29-3.15-1.2,0-2.07.63-3.3,1.89v7.6h-.93Z"/><path class="cls-2" d="M352.53,435.26c0-3.29,2.14-5.31,4.39-5.31s3.86,1.7,3.86,4.67a3.78,3.78,0,0,1,0,.75h-7.25c0,2.55,1.53,4.36,3.8,4.36a4.58,4.58,0,0,0,2.71-.89l.38.71a5.58,5.58,0,0,1-3.18,1C354.62,440.54,352.53,438.56,352.53,435.26Zm7.38-.65c0-2.58-1.17-3.86-3-3.86s-3.24,1.45-3.45,3.86Z"/><path class="cls-2" d="M363.72,435.26c0-3.29,2.14-5.31,4.4-5.31s3.86,1.7,3.86,4.67a3.8,3.8,0,0,1-.06.75h-7.25c0,2.55,1.53,4.36,3.8,4.36a4.58,4.58,0,0,0,2.71-.89l.38.71a5.55,5.55,0,0,1-3.18,1C365.81,440.54,363.72,438.56,363.72,435.26Zm7.38-.65c0-2.58-1.16-3.86-3-3.86s-3.24,1.45-3.45,3.86Z"/><path class="cls-2" d="M375.76,430.2h.79l.1,1.88h0a3.53,3.53,0,0,1,2.87-2.13,2.14,2.14,0,0,1,1,.21l-.21.84a2.27,2.27,0,0,0-.91-.17c-.91,0-2,.69-2.75,2.6v6.85h-.93Z"/></svg>