<svg id="Camada_1" data-name="Camada 1" xmlns="http://www.w3.org/2000/svg" viewBox="0 0 595.28 595.28"><defs><style>.cls-1{fill:#181819;}.cls-2{fill:#009986;}</style></defs><circle class="cls-1" cx="297.64" cy="294.64" r="279.53"/><path class="cls-2" d="M492,431.5H448c-16.43,0-32.86.17-49.28-.17-3.18-.06-7.87-1.23-9.18-3.46-5.25-8.9-9.44-18.42-14.9-29.5h65.09L329.91,173.61c-11.32,23.08-22,44.72-32.55,66.37-20,41-40.27,81.8-59.91,122.94-3.55,7.45-7.89,10.17-15.83,9.54-7.79-.62-15.66-.14-25-.14,1.64-4.26,2.57-7.31,3.95-10.13q53.81-110.05,107.57-220.12c2.53-5.2,5.7-6.41,11.17-7.3,21.09-3.43,31.9,4.74,41.24,24.64,41.4,88.16,85,175.3,127.71,262.83C489.4,424.52,490.18,427,492,431.5Z"/><path class="cls-2" d="M283.68,135,155.21,398h65.11c-5.65,11.43-10.2,21-15.2,30.36-.85,1.58-3.67,3-5.58,3-31.2.08-62.4-.08-93.6-.24-.52,0-1-.65-2.64-1.73,4.52-9.44,9-19.09,13.73-28.67q62.54-128.22,125-256.47c3.29-6.77,7.15-10.07,15-9.33S273.2,135,283.68,135Z"/><path class="cls-2" d="M345.73,339.64c-10.76-22.13-20.2-42.22-30.32-61.95-3.25-6.32-3.12-11.36.29-17.4,4.81-8.5,8.8-17.47,14.27-28.51l68.19,139.54H261.5C266.64,361,271,351.21,276.38,342c1.1-1.88,5.8-2.26,8.86-2.29C304.55,339.54,323.87,339.64,345.73,339.64Z"/></svg>